<svg xmlns="http://www.w3.org/2000/svg" xmlns:xlink="http://www.w3.org/1999/xlink" width="250" zoomAndPan="magnify" viewBox="0 0 375 112.499997" height="150" preserveAspectRatio="xMidYMid meet" version="1.0"><defs><g/><clipPath id="85a4c37a57"><path d="M 5.347656 24.320312 L 68.148438 24.320312 L 68.148438 87.121094 L 5.347656 87.121094 Z M 5.347656 24.320312 " clip-rule="nonzero"/></clipPath><clipPath id="ee61aa984a"><path d="M 36.75 24.320312 C 19.40625 24.320312 5.347656 38.378906 5.347656 55.71875 C 5.347656 73.0625 19.40625 87.121094 36.75 87.121094 C 54.089844 87.121094 68.148438 73.0625 68.148438 55.71875 C 68.148438 38.378906 54.089844 24.320312 36.75 24.320312 " clip-rule="nonzero"/></clipPath><clipPath id="5570caa4e1"><path d="M 6.679688 25.082031 L 69.476562 25.082031 L 69.476562 80.90625 L 6.679688 80.90625 Z M 6.679688 25.082031 " clip-rule="nonzero"/></clipPath><clipPath id="f7894a5b26"><path d="M 38.082031 25.082031 L 6.683594 80.90625 L 69.476562 80.90625 L 38.082031 25.082031 " clip-rule="nonzero"/></clipPath><clipPath id="944a19e96d"><path d="M 74.394531 31.859375 L 149.332031 31.859375 L 149.332031 82 L 74.394531 82 Z M 74.394531 31.859375 " clip-rule="nonzero"/></clipPath></defs><g clip-path="url(#85a4c37a57)"><g clip-path="url(#ee61aa984a)"><path stroke-linecap="butt" transform="matrix(3.41782, 0, 0, 3.41782, 5.346917, 24.318769)" fill="none" stroke-linejoin="miter" d="M 9.188046 0.000451741 C 4.113539 0.000451741 0.000216294 4.113774 0.000216294 9.187138 C 0.000216294 14.261646 4.113539 18.374968 9.188046 18.374968 C 14.26141 18.374968 18.374733 14.261646 18.374733 9.187138 C 18.374733 4.113774 14.26141 0.000451741 9.188046 0.000451741 " stroke="#545454" stroke-width="0.428017" stroke-opacity="1" stroke-miterlimit="4"/></g></g><g clip-path="url(#5570caa4e1)"><g clip-path="url(#f7894a5b26)"><path stroke-linecap="butt" transform="matrix(-3.575939, -0.000000000000000438, 0.000000000000000422, -3.441966, 69.477596, 80.906383)" fill="none" stroke-linejoin="miter" d="M 8.779669 16.218739 L 17.560141 0.0000386713 L 0.000288965 0.0000386713 L 8.779669 16.218739 " stroke="#545454" stroke-width="0.428017" stroke-opacity="1" stroke-miterlimit="4"/></g></g><g clip-path="url(#944a19e96d)"><path fill="#000000" d="M 74.394531 31.859375 L 150.398438 31.859375 L 150.398438 81.804688 L 74.394531 81.804688 Z M 74.394531 31.859375 " fill-opacity="1" fill-rule="nonzero"/></g><g fill="#ffffff" fill-opacity="1"><g transform="translate(75.261671, 74.032407)"><g><path d="M 5.265625 0 L 27.777344 0 L 27.777344 -4.234375 L 9.808594 -4.234375 L 9.808594 -16.316406 L 25.921875 -16.316406 L 25.921875 -20.5 L 9.808594 -20.5 L 9.808594 -31.910156 L 27.210938 -31.910156 L 27.210938 -36.144531 L 5.265625 -36.144531 Z M 5.265625 0 "/></g></g></g><g fill="#ffffff" fill-opacity="1"><g transform="translate(110.320269, 74.032407)"><g><path d="M 5.265625 0 L 9.757812 0 L 9.757812 -28.296875 L 29.742188 0 L 33.976562 0 L 33.976562 -36.144531 L 29.535156 -36.144531 L 29.535156 -7.847656 L 9.550781 -36.144531 L 5.265625 -36.144531 Z M 5.265625 0 "/></g></g></g><g fill="#545454" fill-opacity="1"><g transform="translate(147.69499, 73.892858)"><g><path d="M 3.925781 0 L 22.960938 0 C 30.488281 0 35.738281 -4.242188 35.738281 -10.339844 C 35.738281 -14.265625 33.617188 -17.445312 30.117188 -18.984375 C 32.980469 -20.628906 34.625 -23.597656 34.625 -27.148438 C 34.625 -33.246094 29.746094 -37.117188 22.007812 -37.117188 L 3.925781 -37.117188 Z M 14.421875 -7.953125 L 14.421875 -14.898438 L 20.890625 -14.898438 C 23.4375 -14.898438 24.871094 -13.628906 24.871094 -11.453125 C 24.871094 -9.226562 23.4375 -7.953125 20.890625 -7.953125 Z M 14.421875 -22.535156 L 14.421875 -29.21875 L 19.992188 -29.21875 C 22.484375 -29.21875 23.863281 -27.996094 23.863281 -25.875 C 23.863281 -23.703125 22.484375 -22.535156 19.992188 -22.535156 Z M 14.421875 -22.535156 "/></g></g></g><g fill="#545454" fill-opacity="1"><g transform="translate(184.969692, 73.892858)"><g><path d="M 3.925781 0 L 14.636719 0 L 14.636719 -10.550781 L 18.664062 -10.550781 L 23.96875 0 L 36.109375 0 L 29.269531 -12.515625 C 33.195312 -14.6875 35.421875 -18.613281 35.421875 -23.808594 C 35.421875 -32.027344 29.855469 -37.117188 20.839844 -37.117188 L 3.925781 -37.117188 Z M 14.421875 -19.089844 L 14.421875 -28.367188 L 19.40625 -28.367188 C 22.800781 -28.367188 24.65625 -26.726562 24.65625 -23.753906 C 24.65625 -20.785156 22.800781 -19.089844 19.40625 -19.089844 Z M 14.421875 -19.089844 "/></g></g></g><g fill="#545454" fill-opacity="1"><g transform="translate(223.145776, 73.892858)"><g><path d="M 3.925781 0 L 14.636719 0 L 14.636719 -37.117188 L 3.925781 -37.117188 Z M 3.925781 0 "/></g></g></g><g fill="#545454" fill-opacity="1"><g transform="translate(241.703589, 73.892858)"><g><path d="M 21.632812 0.796875 C 34.414062 0.796875 42.421875 -8.484375 41.253906 -21.527344 L 19.777344 -21.527344 L 19.777344 -14 L 30.011719 -14 C 28.953125 -10.871094 25.984375 -8.75 21.742188 -8.75 C 15.800781 -8.75 12.355469 -12.9375 12.355469 -18.558594 C 12.355469 -24.390625 16.121094 -28.367188 21.632812 -28.367188 C 24.921875 -28.367188 27.734375 -26.9375 29.164062 -24.605469 L 40.566406 -24.605469 C 38.390625 -32.71875 30.859375 -37.914062 21.476562 -37.914062 C 9.808594 -37.914062 1.804688 -29.960938 1.804688 -18.558594 C 1.804688 -7.105469 9.863281 0.796875 21.632812 0.796875 Z M 21.632812 0.796875 "/></g></g></g><g fill="#545454" fill-opacity="1"><g transform="translate(284.757734, 73.892858)"><g><path d="M 26.089844 0 L 36.800781 0 L 36.800781 -37.117188 L 26.089844 -37.117188 L 26.089844 -23.808594 L 14.636719 -23.808594 L 14.636719 -37.117188 L 3.925781 -37.117188 L 3.925781 0 L 14.636719 0 L 14.636719 -13.945312 L 26.089844 -13.945312 Z M 26.089844 0 "/></g></g></g><g fill="#545454" fill-opacity="1"><g transform="translate(325.478891, 73.892858)"><g><path d="M 12.78125 0 L 23.4375 0 L 23.4375 -27.203125 L 34.730469 -27.203125 L 34.730469 -37.117188 L 1.484375 -37.117188 L 1.484375 -27.203125 L 12.78125 -27.203125 Z M 12.78125 0 "/></g></g></g></svg>